<svg width="100" height="100" viewBox="0 0 100 100" fill="none" xmlns="http://www.w3.org/2000/svg">
<path d="M57.021 20.9241C44.3605 21.4746 30.918 26.2211 23.0118 33.1652V27.0152C31.5351 22.6727 40.7683 20.5014 50.0038 20.5014C52.3476 20.5014 54.6914 20.6445 57.021 20.9241Z" fill="#540C2F"/>
<path d="M40.444 72.8089L57.4579 84.9626L50.0114 90.2826H50.0071L40.444 83.4489C30.9737 76.5605 23.0162 69.1316 23.0162 59.6864V51.0201C24.033 59.539 31.6422 66.4055 40.444 72.8089Z" fill="#540C2F"/>
<path d="M76.9629 31.4015V31.4058C76.7751 33.1577 74.1266 34.0249 74.1266 34.0249C73.2157 32.581 71.8002 30.6413 71.8002 30.6413C71.8002 30.6413 74.2806 30.3508 76.9629 31.4015Z" fill="#540C2F"/>
<path d="M76.7455 57.9565L76.7379 57.9489C76.1765 59.4517 75.3126 61.9823 74.6551 63.5113C74.3395 64.2125 73.1971 63.97 72.8476 64.4953C71.7783 66.0899 69.6366 66.4241 68.3358 66.2221C66.4878 65.9316 65.364 65.2631 64.2838 64.4069C63.0977 63.4665 63.0934 62.6878 63.1305 62.0303C63.1676 61.351 63.2441 60.5166 63.1818 59.6166C63.1818 58.4742 60.2133 55.4543 57.9645 51.7147C59.001 51.6481 59.4826 51.3543 59.4826 51.3543C59.203 51.2768 58.9234 51.2069 58.6449 51.1304C56.6867 50.6007 54.8169 49.8373 53.1262 48.7233C52.2262 48.1291 51.3962 47.2871 50.7016 46.3216C49.8901 45.0754 48.8875 42.6945 49.8857 39.3622C48.586 41.4527 48.6035 44.2082 49.7874 46.5673C46.4803 50.7514 46.4508 58.555 62.7777 70.0687V70.072L69.6551 74.9846C67.6892 77.0193 65.4339 78.971 63.0093 80.8703L40.4482 64.7531C31.2969 58.0996 23.5632 50.9393 23.0455 41.9496C25.7967 34.2487 35.2866 25.0974 58.2408 21.8711L58.8066 21.8088C60.2537 21.6472 61.6167 21.6767 63.0464 21.9672C64.3242 22.2577 65.5988 22.5876 66.8635 22.9622C66.999 23.0026 67.1202 23.043 67.2305 23.0878C70.5518 24.098 73.8098 25.4054 76.9738 27.0152C76.1689 29.3143 70.6108 29.8953 69.8539 29.9652C70.5769 30.8761 72.201 33.0364 74.3613 36.5521C75.3312 38.1325 76.0181 39.6386 76.301 40.3037C76.408 40.5527 76.4441 40.8247 76.4004 41.0966C76.2977 41.7246 75.9887 42.7906 75.0636 43.7714C75.0636 43.7714 76.4812 53.2569 76.9585 56.4165C77.036 56.9386 76.929 57.4607 76.7455 57.9565Z" fill="#540C2F"/>
<path d="M49.9927 15.674C31.8583 15.674 18.75 23.2417 18.75 23.2417V60.6563C18.75 66.0462 20.753 71.1237 24.8673 76.1782C27.8686 79.8665 31.8954 83.463 37.9242 87.8503L50.0189 96.4687L62.0612 87.8503C68.09 83.463 72.1169 79.8665 75.1182 76.1782C79.2324 71.1237 81.2354 66.0418 81.2354 60.6563V23.2417C81.2354 23.2417 68.1676 15.674 49.9927 15.674ZM76.7455 57.9564L76.7379 57.9488C76.1765 59.4516 75.3126 61.9822 74.6551 63.5112C74.3395 64.2124 73.197 63.9699 72.8475 64.4953C71.7783 66.0898 69.6366 66.424 68.3358 66.222C66.4878 65.9315 65.364 65.2631 64.2838 64.4068C63.0977 63.4664 63.0933 62.6877 63.1305 62.0302C63.1676 61.3509 63.2441 60.5165 63.1818 59.6165C63.1818 58.4741 60.2133 55.4543 57.9645 51.7146C59.001 51.648 59.4826 51.3542 59.4826 51.3542C59.203 51.2767 58.9234 51.2068 58.6449 51.1303C56.6867 50.6006 54.8168 49.8372 53.1262 48.7232C52.2262 48.129 51.3962 47.287 50.7015 46.3215C49.8901 45.0753 48.8874 42.6944 49.8857 39.3622C48.586 41.4526 48.6035 44.2081 49.7874 46.5672C46.4803 50.7514 46.4508 58.5549 62.7777 70.0686V70.0719L69.6551 74.9845C67.6892 77.0192 65.4339 78.9709 63.0092 80.8702L40.4482 64.753C31.2969 58.0995 23.5632 50.9392 23.0455 41.9495C25.7967 34.2486 35.2866 25.0973 58.2408 21.871L58.8066 21.8087C60.2537 21.6471 61.6167 21.6766 63.0464 21.9671C64.3242 22.2576 65.5988 22.5875 66.8635 22.9621C66.999 23.0025 67.1202 23.0429 67.2305 23.0877C70.5518 24.0979 73.8098 25.4053 76.9738 27.0151C76.1688 29.3142 70.6108 29.8952 69.8539 29.9651C70.5769 30.876 72.201 33.0363 74.3613 36.552C75.3311 38.1324 76.0181 39.6385 76.301 40.3036C76.408 40.5526 76.4441 40.8246 76.4004 41.0965C76.2977 41.7245 75.9886 42.7905 75.0636 43.7713C75.0636 43.7713 76.4812 53.2568 76.9585 56.4165C77.036 56.9385 76.929 57.4606 76.7455 57.9564ZM50.0069 90.2826L40.4438 83.4488C30.9736 76.5605 23.016 69.1315 23.016 59.6864V51.02C24.0328 59.539 31.642 66.4055 40.4438 72.8089L57.4577 84.9626L50.0113 90.2826H50.0069ZM23.0117 27.0151C31.535 22.6727 40.7682 20.5014 50.0036 20.5014C52.3474 20.5014 54.6913 20.6445 57.0209 20.9241C44.3604 21.4745 30.9179 26.2211 23.0117 33.1652V27.0151ZM76.9629 31.4013V31.4057C76.775 33.1575 74.1265 34.0247 74.1265 34.0247C73.2156 32.5809 71.8002 30.6412 71.8002 30.6412C71.8002 30.6412 74.2805 30.3506 76.9629 31.4013Z" fill="#EAAA01"/>
<path d="M65.4228 37.4488C65.2024 37.0924 64.9709 36.7617 64.7321 36.5634C63.7181 35.8139 62.2192 34.7632 60.9334 34.4803C60.8268 35.2702 61.4256 36.7838 61.8849 37.3238C62.3441 37.8602 64.4933 37.8566 64.4933 37.8566L66.6058 39.3187L65.4228 37.4451V37.4488Z" fill="#EAAA01"/>
<path d="M73.1565 43.4261C74.1852 42.3313 74.4754 41.4055 74.5489 40.9022C74.571 40.7552 74.5489 40.6046 74.4975 40.4687C74.2146 39.7155 72.9765 37.041 68.8214 33.6537C64.6406 30.2443 59.8682 29.3589 59.8682 29.3589C59.8682 29.3589 66.7787 31.3208 71.5768 40.4062C71.6576 40.5605 71.6833 40.7405 71.6392 40.9095C71.36 41.997 70.5114 42.6289 70.5114 42.6289C70.5114 42.6289 69.4753 41.8133 68.2226 41.152C70.9302 44.5503 71.3821 46.1558 71.9001 48.6724L72.5173 52.3536C72.6569 53.1839 73.0978 52.9891 73.2227 53.926C72.87 53.6027 72.2858 53.577 72.2858 53.577C71.5878 53.5182 70.2909 53.6578 69.5819 54.8297C68.7993 56.1303 69.2475 57.6806 69.2475 57.6806C69.2475 57.6806 69.3761 55.7298 70.7648 55.0465C71.7274 54.5726 72.7671 54.7379 73.5753 55.3588C74.4938 56.0605 75.0486 56.0715 75.0486 56.0715L73.1492 43.4298H73.1529L73.1565 43.4261Z" fill="#EAAA01"/>
<path d="M25.7891 12.8815C25.7891 11.9379 25.2823 11.478 24.6871 11.4125C25.0988 11.0226 25.6023 10.2843 25.6023 9.4062C25.6023 7.99948 24.757 7.51455 23.2836 8.0803C21.7557 8.67117 20.2419 9.31773 18.7544 10.0156V13.0541C18.8385 12.1104 19.224 11.6102 19.9623 11.2727C20.0399 11.2356 22.138 10.3214 23.1002 9.93481C23.5993 9.73712 23.8789 9.866 23.8789 10.3138C23.8789 10.7616 23.5993 11.1034 23.1002 11.3055C22.1008 11.7096 21.1091 12.1355 20.1284 12.5844C19.3398 12.9459 18.9007 13.8754 18.785 14.653C18.7642 14.7928 18.7544 14.9271 18.7544 15.0527V18.2342C20.2965 17.4479 21.8616 16.7281 23.4453 16.063C24.2393 15.7332 24.8564 15.2482 25.2583 14.653C25.6067 14.1364 25.7935 13.5357 25.7935 12.8815H25.7891ZM20.4582 15.5824V14.1047C21.3876 13.6788 22.3247 13.2714 23.2694 12.8891C23.7609 12.6904 24.0296 12.8749 24.0296 13.3118C24.0296 13.7487 23.7609 14.1451 23.2694 14.3472C23.0259 14.4477 22.7834 14.5492 22.5421 14.653C21.8431 14.9501 21.1484 15.2602 20.4582 15.5824Z" fill="#EAAA01"/>
<path d="M32.7735 10.1149C33.7139 9.49782 34.2949 8.53234 34.2949 7.38228C34.2949 6.0389 33.5664 5.32025 32.4022 5.32025C32.1259 5.32025 31.8266 5.36067 31.5055 5.44258C30.0256 5.82047 28.5555 6.24642 27.1008 6.72042V14.6529C27.7146 14.4355 28.3316 14.2258 28.9531 14.0282L28.9564 14.0314V11.419C29.5734 11.2289 30.1905 11.0443 30.812 10.8685C31.3002 11.5959 31.7927 12.3265 32.2853 13.0583C33.0051 12.8672 33.7248 12.687 34.4489 12.5177C33.8897 11.7138 33.3316 10.9122 32.7735 10.1149ZM31.4105 9.00962C30.587 9.23024 29.7679 9.46505 28.9531 9.71516V7.94802C29.7679 7.7012 30.587 7.46965 31.4105 7.2534V7.25668C32.0712 7.08411 32.4349 7.3233 32.4349 7.87375C32.4349 8.39582 32.0712 8.83269 31.4105 9.00962Z" fill="#EAAA01"/>
<path d="M37.5348 11.8787V4.1673C36.8993 4.27384 36.2637 4.3914 35.6318 4.51631V12.2571C36.2637 12.1212 36.8993 11.9963 37.5348 11.8787Z" fill="#EAAA01"/>
<path d="M42.803 9.50896C41.8038 9.60816 40.5583 9.45018 39.7207 8.675C39.346 9.25914 38.9712 9.84328 38.6002 10.4348C39.3496 11.1548 41.1572 11.4157 42.6855 11.2577C44.8824 11.0226 46.4585 10.1225 46.4585 8.34803C46.4585 6.57356 44.8053 6.38619 43.1778 6.34211C41.5209 6.31271 41.0139 6.30537 41.0102 5.89757C41.0102 5.49345 41.5282 5.18852 42.4393 5.093C43.5672 4.97543 44.6179 5.29139 45.2094 5.86083C45.5878 5.35017 45.9626 4.84318 46.341 4.33986C45.6135 3.65285 44.1844 3.20464 42.5863 3.36261C40.4885 3.57202 39.0741 4.75133 39.0741 6.37517C39.0741 8.00269 40.4885 8.14229 42.0756 8.14964C43.8317 8.17168 44.4012 8.18638 44.4012 8.70439C44.4012 9.14158 43.7435 9.41344 42.803 9.50896Z" fill="#EAAA01"/>
<path d="M61.3558 3.98679C60.6252 3.8732 59.8934 3.77381 59.1595 3.68207C58.0094 6.09578 56.8517 8.52477 55.6984 10.9745C56.3777 11.0302 57.0614 11.1001 57.7375 11.1766C57.9504 10.7211 58.1634 10.2657 58.3731 9.81026L58.3764 9.81353C59.6073 9.96098 60.8349 10.1445 62.0581 10.3574C62.2667 10.8795 62.4808 11.4016 62.6894 11.9225C63.384 12.0547 64.0819 12.1945 64.7732 12.3452C63.6374 9.51318 62.4982 6.72814 61.3558 3.98679ZM59.13 8.23425C59.4969 7.44789 59.8683 6.66589 60.2353 5.8828C60.5989 6.76855 60.9626 7.66086 61.3263 8.55426C60.5957 8.4363 59.865 8.32927 59.13 8.23425Z" fill="#EAAA01"/>
<path d="M73.1786 6.82754V14.7666C73.0726 14.7283 72.9656 14.6901 72.8586 14.653C72.4239 14.499 71.987 14.3493 71.5469 14.2041C70.2319 12.0623 68.906 9.98283 67.5724 7.96231V13.0245C66.9619 12.8629 66.3492 12.7089 65.7354 12.5658V4.79938C66.3634 4.93481 66.9914 5.07897 67.6194 5.23297C68.8798 7.14318 70.1292 9.10145 71.3743 11.1143V6.25743C71.9805 6.44091 72.5801 6.62877 73.1786 6.82754Z" fill="#EAAA01"/>
<path d="M54.1114 6.91488C54.545 6.7172 55.0736 6.22134 55.0736 5.38365C55.0736 4.03482 54.1878 3.23098 52.6227 3.172C50.9954 3.11302 49.3681 3.10974 47.7407 3.16108V10.7844C49.4238 10.7287 51.1101 10.7364 52.792 10.8063V10.8019C54.3648 10.8685 55.268 10.1412 55.2724 8.78905C55.2724 7.88473 54.7426 7.22724 54.1114 6.91488ZM49.5887 4.81354C50.5323 4.81026 51.4803 4.82118 52.4251 4.85395V4.85067C52.958 4.86924 53.2518 5.10733 53.2518 5.53C53.2518 5.95595 52.958 6.16565 52.4251 6.14708C51.5863 6.11759 50.7442 6.10557 49.9054 6.10557C49.8006 6.10557 49.6946 6.10667 49.5887 6.10667V4.81354ZM52.6009 9.09377C51.5983 9.05772 50.5913 9.03916 49.5887 9.04571V7.6652C50.5913 7.65756 51.5983 7.67612 52.6009 7.71216C53.123 7.73073 53.4091 8.02452 53.4091 8.43628C53.4091 8.8513 53.123 9.11233 52.6009 9.09377Z" fill="#EAAA01"/>
<path d="M76.595 9.90953V11.1077C77.9798 11.6581 79.3505 12.2533 80.7059 12.8966V14.7446C80.6415 14.714 80.5781 14.6834 80.5137 14.6528C79.2206 14.0358 77.9143 13.458 76.595 12.9217V14.2335C76.9292 14.37 77.2612 14.5098 77.5932 14.6528C78.8154 15.1749 80.0244 15.7374 81.2203 16.3348V18.2385C79.1234 17.1692 76.9805 16.2179 74.8093 15.3759V7.38879C76.9849 8.16096 79.1234 9.03907 81.2203 10.0231V11.9224C79.7 11.195 78.1568 10.5233 76.595 9.90953Z" fill="#EAAA01"/>
</svg>
