<?xml version="1.0" encoding="UTF-8"?><svg id="uuid-9f062519-4aef-4700-87b7-b5df82ad443b" xmlns="http://www.w3.org/2000/svg" viewBox="0 0 150 150"><path d="M88.94,111.98h-7.88c-1.66,0-2.95.47-3.84,1.35-.91.89-1.35,2.17-1.35,3.84v16.93c0,1.66.47,2.95,1.35,3.84.89.91,2.17,1.35,3.84,1.35h7.88c1.66,0,2.95-.47,3.84-1.35.91-.89,1.35-2.17,1.35-3.84v-16.93c0-1.66-.47-2.95-1.35-3.84-.89-.91-2.17-1.35-3.84-1.35ZM87.78,132.75c0,.64-.31.95-.95.95h-3.66c-.64,0-.95-.31-.95-.95v-14.22c0-.64.31-.95.95-.95h3.66c.64,0,.95.31.95.95v14.22Z" fill="#fff"/><path d="M68.94,111.98h-7.88c-1.66,0-2.95.47-3.84,1.35-.91.89-1.35,2.17-1.35,3.84v5.77l2.42,2.42-2.42,2.42v6.3c0,1.66.47,2.95,1.35,3.84.89.91,2.17,1.35,3.84,1.35h7.88c1.66,0,2.95-.47,3.84-1.35.91-.89,1.35-2.17,1.35-3.84v-6.3l-2.42-2.42,2.42-2.42v-5.77c0-1.66-.47-2.95-1.35-3.84-.89-.91-2.17-1.35-3.84-1.35ZM67.79,132.75c0,.64-.31.95-.95.95h-3.66c-.64,0-.95-.31-.95-.95v-3.66c0-.64.31-.95.95-.95h3.66c.64,0,.95.33.95.95v3.66ZM67.79,121.61c0,.64-.31.95-.95.95h-3.66c-.64,0-.95-.31-.95-.95v-3.08c0-.64.31-.95.95-.95h3.66c.64,0,.95.31.95.95v3.08Z" fill="#fff"/><path d="M119.6,71.57c0-24.63-19.97-44.6-44.6-44.6s-44.6,19.97-44.6,44.6c0,17.46,10.03,32.58,24.7,39.9.04-.04.09-.11.13-.16,1.46-1.44,3.44-2.17,5.88-2.17h7.88c2.44,0,4.42.73,5.86,2.17.04.07.11.13.18.2.04-.07.11-.13.18-.2,1.46-1.44,3.44-2.17,5.88-2.17h7.88c2.44,0,4.42.73,5.86,2.17.04.04.09.11.13.16,14.62-7.32,24.65-22.43,24.65-39.9ZM75.78,100.84c1.26,2.02,5.13,4.9,5.13,4.9-17.2,2.71-21.52-9.54-21.52-9.54.04,3.17.87,6.7.87,6.7-12.98-5.77-13.4-15.31-13.4-15.31-.42,1.84-.58,4.04-.58,4.04-12.01-16.47-3.95-33.57,2.02-39.32-1.82.38-5.48,1.69-5.48,1.69,6.08-12.87,18.04-14.36,18.04-14.36-1.15-.42-3.99-1.02-3.99-1.02,14.09-8.63,29.34-.51,29.34-.51-.42-1.11-1.55-3.33-1.55-3.33,7.94,2.26,23.17,12.18,19.24,24.37,11.52,12.29,8.63,32.6-10.07,31.2-1.22.58-4.7,1.89-10.19.84,0,1.46,1.26,6.21,12.91,8.12-7.68,6.06-15.31,5.08-20.75,1.53Z" fill="#fff"/><path d="M122.07,24.51c-12.56-12.58-29.29-19.51-47.07-19.51s-34.51,6.92-47.07,19.51c-12.58,12.56-19.51,29.29-19.51,47.07s6.92,34.51,19.51,47.07c6.46,6.46,14,11.41,22.21,14.71v.73c0,3.2,1.04,5.92,3.02,7.9,1.97,1.97,4.7,3.02,7.9,3.02h7.88c2.29,0,4.35-.55,6.06-1.58,1.71,1.04,3.77,1.58,6.06,1.58h7.88c3.2,0,5.92-1.04,7.9-3.02,1.97-1.97,3.02-4.7,3.02-7.9v-.73c8.21-3.31,15.76-8.25,22.21-14.71,12.58-12.56,19.51-29.29,19.51-47.07s-6.92-34.51-19.51-47.07ZM96.97,131.38v2.73c0,2.44-.73,4.42-2.17,5.86-1.46,1.44-3.44,2.17-5.88,2.17h-7.88c-2.46,0-4.44-.73-5.88-2.17-.04-.07-.11-.13-.18-.2-.04.07-.11.13-.18.2-1.44,1.44-3.42,2.17-5.86,2.17h-7.88c-2.46,0-4.44-.73-5.88-2.17s-2.17-3.42-2.17-5.86v-2.73c-24.34-8.94-41.72-32.35-41.72-59.8,0-35.19,28.51-63.71,63.71-63.71s63.71,28.51,63.69,63.71c0,27.45-17.38,50.84-41.72,59.8Z" fill="#fff"/><polygon points="17.84 62.58 22.7 64.91 17.42 65.96 17.24 67.31 24.34 69.51 24.52 68.15 20.03 66.78 24.81 65.82 24.96 64.6 20.57 62.47 25.25 62.25 25.43 60.92 18.01 61.23 17.84 62.58" fill="#fff"/><path d="M19.3,55.93l6.26,4.79.4-1.4-1.29-1,.84-2.86,1.6-.13.4-1.4-7.81.64-.4,1.35ZM24.05,55.53l-.55,1.89-2.13-1.64,2.69-.24Z" fill="#fff"/><polygon points="23.65 44.77 23.07 46.03 27.45 48.03 21.76 48.87 21.21 50.09 27.87 53.15 28.44 51.89 24.07 49.89 29.75 49.05 30.31 47.83 23.65 44.77" fill="#fff"/><polygon points="32.88 43.63 31.75 42.95 30.69 44.68 25.56 41.57 24.83 42.77 31.11 46.56 32.88 43.63" fill="#fff"/><polygon points="34.37 41.57 35.21 40.46 32.68 38.55 30.66 34.34 29.78 35.51 31.04 38.2 28.11 37.69 27.2 38.88 31.84 39.66 34.37 41.57" fill="#fff"/><polygon points="40.74 34.45 38.61 30.01 42.73 32.67 43.73 31.78 40.14 25.19 39.12 26.1 41.4 30.32 37.32 27.68 36.46 28.43 38.56 32.8 34.68 29.99 33.66 30.9 39.74 35.31 40.74 34.45" fill="#fff"/><path d="M46.44,29.88l-.29-1.6,2.53-1.6,1.29.98,1.22-.78-6.28-4.7-1.2.75,1.51,7.72,1.22-.78ZM47.53,25.79l-1.66,1.04-.51-2.64,2.17,1.6Z" fill="#fff"/><path d="M53.32,25.93l-1.29-2.82.11-.04,2.8,2.13,1.38-.64-2.93-2.24c.36-.36.58-.71.64-1.11s0-.8-.2-1.24c-.18-.42-.44-.73-.78-.95-.31-.22-.67-.33-1.04-.31s-.93.2-1.66.53l-1.33.62,3.04,6.66,1.26-.58ZM51.48,21.86l-.64-1.35.36-.16c.33-.16.58-.22.73-.24.13-.02.27.02.4.09.13.09.22.18.29.33.11.24.13.44.02.62-.09.18-.36.36-.75.53l-.4.18Z" fill="#fff"/><path d="M58.65,23.77l-.98-2.95.11-.04,2.53,2.44,1.44-.47-2.66-2.55c.38-.31.64-.62.75-1.02.11-.4.11-.8-.04-1.26-.13-.44-.36-.8-.67-1.04s-.64-.4-1.02-.42c-.38-.02-.93.09-1.71.33l-1.4.47,2.31,6.97,1.33-.44ZM56.78,18.11l.36-.11c.36-.11.6-.16.75-.16s.29.04.4.13.2.2.24.36c.07.24.07.47-.07.62s-.4.31-.82.44l-.42.13-.44-1.42Z" fill="#fff"/><polygon points="63.97 22.26 62.28 15.14 60.93 15.45 62.62 22.57 63.97 22.26" fill="#fff"/><polygon points="66.72 21.73 66.08 16.96 69.81 21.31 71.14 21.13 70.16 13.88 68.79 14.05 69.43 18.8 65.68 14.45 64.35 14.63 65.35 21.91 66.72 21.73" fill="#fff"/><path d="M74.16,20.73c.58.33,1.26.51,2.02.53.71,0,1.33-.13,1.86-.42s.98-.71,1.31-1.29c.33-.58.51-1.18.53-1.82v-.31l-3.66-.04-.02,1.31,2.13.04c-.22.42-.49.73-.82.93-.33.2-.73.29-1.22.29-.75-.02-1.38-.27-1.86-.78-.51-.51-.75-1.11-.73-1.82,0-.69.27-1.26.75-1.73.49-.47,1.11-.71,1.82-.69.82,0,1.55.36,2.15,1.02l1-.95c-.42-.49-.89-.84-1.35-1.04-.55-.24-1.13-.36-1.78-.38-1.22-.02-2.22.38-3,1.22-.64.71-.98,1.53-1,2.51,0,.69.16,1.35.49,1.97.33.62.78,1.11,1.38,1.44Z" fill="#fff"/><path d="M82.54,20.07l2.93.53.31,1.58,1.42.24-1.51-7.7-1.4-.24-4.02,6.72,1.42.24.84-1.38ZM84.68,16.52l.53,2.64-1.93-.33,1.4-2.31Z" fill="#fff"/><polygon points="90.33 20.07 92.66 20.82 91.69 23.88 93.02 24.31 95.26 17.34 93.93 16.92 93.09 19.53 90.76 18.78 91.62 16.16 90.27 15.72 88 22.69 89.36 23.13 90.33 20.07" fill="#fff"/><path d="M98.37,26.99c.6.31,1.15.4,1.71.24.55-.16.95-.49,1.24-1.02.16-.29.22-.55.24-.84s-.04-.62-.16-1c-.04-.16-.2-.55-.47-1.2-.29-.69-.44-1.13-.47-1.31-.02-.16-.02-.27.04-.38s.16-.2.31-.22.31,0,.47.09c.33.16.53.55.62,1.18l1.33-.33c-.13-.58-.31-1.02-.47-1.33-.2-.31-.47-.53-.8-.71-.51-.27-1.02-.31-1.53-.18s-.89.44-1.13.89c-.16.33-.22.69-.18,1.11.04.4.27,1.09.67,2.04.2.49.33.84.36,1.04.04.2,0,.38-.07.53-.09.16-.24.27-.44.31-.2.04-.4.02-.62-.09-.4-.2-.62-.69-.62-1.42l-1.38.09c-.02.62.09,1.13.31,1.53s.55.73,1.02.98Z" fill="#fff"/><polygon points="104.74 30.65 105.49 29.52 103.32 28.08 104.38 26.48 106.55 27.92 107.29 26.81 105.11 25.37 105.84 24.26 108.02 25.7 108.77 24.57 105.45 22.35 101.41 28.43 104.74 30.65" fill="#fff"/><path d="M106.27,31.85l1.44-.75,2.26,1.95-.55,1.51,1.11.93,2.62-7.39-1.07-.91-6.92,3.73,1.11.93ZM111.37,29.12l-.89,2.53-1.49-1.26,2.37-1.26Z" fill="#fff"/><polygon points="115.48 41.28 116.54 40.42 114.88 38.4 116.36 37.18 118.03 39.2 119.07 38.35 117.41 36.33 118.43 35.49 120.09 37.51 121.16 36.64 118.63 33.56 112.95 38.2 115.48 41.28" fill="#fff"/><path d="M116.63,42.88l1.6-.31,1.6,2.53-.98,1.29.78,1.22,4.68-6.28-.75-1.2-7.7,1.53.78,1.22ZM122.29,41.77l-1.6,2.17-1.04-1.66,2.64-.51Z" fill="#fff"/><path d="M125.99,53.69l.29-.13-1.46-3.37-1.2.51.84,1.95c-.49-.02-.89-.13-1.2-.36s-.55-.55-.75-1c-.29-.67-.31-1.33-.07-2,.27-.67.71-1.13,1.35-1.42.62-.27,1.26-.29,1.89-.02s1.09.71,1.38,1.38c.33.75.31,1.55-.04,2.37l1.29.51c.27-.6.4-1.15.38-1.69,0-.6-.13-1.2-.38-1.78-.49-1.13-1.26-1.86-2.35-2.22-.91-.29-1.82-.24-2.71.13-.64.29-1.18.71-1.6,1.26-.42.58-.67,1.18-.73,1.86-.07.69.04,1.38.36,2.06.29.67.67,1.18,1.15,1.53.49.38,1.04.6,1.71.67.64.07,1.29-.02,1.86-.27Z" fill="#fff"/><polygon points="124.8 57.04 130.54 55.37 130.14 54.04 123.13 56.08 124.09 59.37 125.37 58.99 124.8 57.04" fill="#fff"/><polygon points="125.91 61.34 127.79 60.99 128.28 63.56 129.59 63.32 129.1 60.74 130.41 60.5 130.9 63.07 132.23 62.81 131.47 58.88 124.26 60.25 125.04 64.18 126.39 63.92 125.91 61.34" fill="#fff"/><path d="M132.81,66.33c-.04-.55-.27-1.02-.67-1.38s-.84-.51-1.35-.47c-.36.04-.69.18-1.02.44s-.8.82-1.38,1.66c-.31.44-.53.73-.69.87-.16.13-.33.2-.49.22-.2.02-.36-.04-.51-.2s-.24-.33-.27-.58c-.04-.44.24-.89.87-1.29l-.8-1.11c-.51.31-.89.69-1.11,1.09-.22.42-.31.89-.27,1.4.07.67.31,1.2.73,1.58s.93.53,1.53.49c.31-.02.6-.11.84-.24s.49-.36.75-.67c.11-.13.36-.47.75-1.04.42-.62.71-.98.84-1.11.09-.09.2-.16.33-.16s.24.04.36.16c.09.11.16.27.18.44.02.38-.2.78-.67,1.18l1,.95c.42-.42.71-.82.87-1.18.13-.36.18-.71.16-1.07Z" fill="#fff"/><polygon points="35.21 102.82 33.68 103.04 34.64 104.19 30 108.01 30.89 109.07 36.54 104.41 35.21 102.82" fill="#fff"/><path d="M39.27,111.27c.22-.13.4-.27.55-.42.42-.42.64-.95.64-1.6.02-.62-.22-1.18-.69-1.64s-1-.67-1.62-.67-1.18.22-1.62.69c-.47.47-.69,1.02-.69,1.64s.22,1.13.67,1.58l-2.66.89.44,1.24,3.91-1.29c.51-.16.84-.29,1.07-.42ZM37.5,109.96c-.2-.18-.29-.4-.24-.71,0-.27.09-.49.29-.69.2-.2.42-.31.69-.31s.49.09.67.27c.18.18.27.4.27.67s-.11.51-.31.71c-.2.2-.42.29-.69.31-.27.02-.49-.07-.67-.24Z" fill="#fff"/><path d="M42.36,116.02l2.93-3.71-1.09-.87-5.41,1.75-.8,1.02,2.51,1.97-.93,1.18,1.07.84.93-1.18.51.4.8-1.02-.51-.4ZM41.29,115.15l-1.31-1.04,2.84-.89-1.53,1.93Z" fill="#fff"/><polygon points="45.46 114.29 48.06 115.93 42.73 119.21 43.42 120.32 49.84 116.35 50.24 115.73 46.17 113.18 45.46 114.29" fill="#fff"/><path d="M104.87,119.66l.24-1.18c.18-.93.27-1.66.2-2.22-.04-.55-.2-1-.42-1.38-.18-.31-.44-.58-.82-.75s-.75-.27-1.13-.24c-.4.02-.78.13-1.15.38-.6.38-.98.89-1.13,1.51s-.04,1.29.36,1.97l1.15-.73c-.2-.33-.27-.64-.22-.89.07-.31.22-.53.47-.69s.49-.22.75-.16c.24.07.44.2.6.44.16.22.24.53.27.91s-.04.95-.22,1.71l-.69,3.15.36.55,4.3-2.69-.69-1.09-2.22,1.38Z" fill="#fff"/><path d="M110.5,112.62c-.6-.75-1.15-1.29-1.64-1.58-.49-.31-.98-.42-1.44-.4-.47.04-.91.22-1.33.55-.64.51-.93,1.18-.89,1.95.04.73.49,1.62,1.31,2.69.6.75,1.13,1.26,1.62,1.55.49.29.98.4,1.42.38.47-.02.89-.22,1.33-.55.44-.36.71-.73.84-1.15.11-.42.11-.91-.07-1.46s-.55-1.22-1.15-1.97ZM110.06,116.2c-.27.22-.6.24-1,.11-.38-.16-.87-.58-1.44-1.31-.44-.55-.73-1-.89-1.35s-.2-.64-.16-.87.18-.4.36-.55c.29-.2.62-.24.98-.09.4.13.89.6,1.49,1.35s.91,1.35.98,1.82c.07.38-.04.69-.31.89Z" fill="#fff"/><path d="M114.39,112.22l-.02-1.2c0-.95-.09-1.69-.27-2.22-.18-.53-.4-.95-.71-1.26-.27-.27-.58-.44-.98-.55s-.78-.13-1.15-.02-.73.31-1.04.62c-.53.51-.78,1.09-.8,1.73,0,.67.24,1.26.78,1.86l.98-.95c-.27-.29-.4-.58-.42-.87,0-.29.09-.55.31-.75.2-.2.44-.31.71-.31s.49.11.69.31.33.47.44.84c.11.36.16.93.16,1.71v3.24l.47.49,3.64-3.55-.91-.93-1.86,1.82Z" fill="#fff"/><path d="M119.4,105.41c-.51-.42-1.07-.6-1.69-.55-.62.07-1.13.31-1.53.8l-1.09-2.57-1.22.53,1.64,3.77c.2.51.38.84.51,1.04.13.2.29.38.47.51.47.4,1,.55,1.64.51.62-.04,1.15-.31,1.58-.82.4-.49.58-1.04.51-1.66-.07-.62-.33-1.15-.82-1.55ZM118.72,107.83c-.18.18-.38.29-.64.31-.27.02-.51-.07-.73-.24s-.36-.4-.38-.64c-.02-.27.04-.49.2-.69.16-.22.38-.33.67-.33.24-.02.49.07.71.24s.36.4.38.67c.04.27-.04.49-.2.69Z" fill="#fff"/><path d="M71.14,67.67c1.26,2.64,4.75,9.19,9.76,13.09,1.33-7.03-2.35-9.45-2.35-9.45,1.02,2.53.29,4.59.29,4.59-2.73-8.12-7.7-8.23-7.7-8.23Z" fill="#fff"/><path d="M83.3,57.92c-.58-1.02-1.11-2.15-1.64-3.33-4.06,2.51-.36,8.65,3.75,6.15-.36-.36-.67-.73-.98-1.13-.31.16-.62.24-.95.24-1.29.02-2.31-1.15-2.13-2.44.33.67,1.31.95,1.95.51Z" fill="#fff"/><path d="M88.14,62.52c4.37,3.73,3.77,6.12,3.77,6.12-14.89-12.56-33.91-2.24-33.91-2.24,13.67,1.69,10.87,22.41,32.13,22.21-4.04-6.66-2.97-13.05-6.44-15.38-1,7.7,2.91,12.96,2.91,12.96-11.49-2.02-18.35-18.71-18.35-18.71-2.73-.95-5.55-1.38-5.55-1.38,19.28-3.35,18.75,2.66,25.54,5.75,8.28,3.22,10.85,12.54,5.66,14.93,21.35,3.35,13.89-25.21,5.26-27.32-3.31,0-4.73,4.15-11.03,3.04ZM98.94,64.49c-1.35.04-2.84.71-2.86,2.46,0,.16-.2.24-.31.13-2.2-2.11.84-4.55,3.26-2.95.18.11.11.36-.09.36Z" fill="#fff"/><path d="M80.57,90.21c-6.35-2.64-9.41-5.95-11.56-9.21-2.26,2.02-4.22,5.64-4.22,5.64-1.71-5.55,0-12.45,0-12.45-6.01.11-9.65,3.95-9.65,3.95,0,0,.18-5.04,3.04-8.9-2.06-.8-4.68-1.35-8.06-1.64,7.01-4.86,14.62-7.52,22.19-7.86-1.71-2.44-1.55-4.06-1.55-4.06,3.46,4.08,6.97,4.93,6.97,4.93-3.66-3.75-1.29-8.39-1.29-8.39-7.52-5.66-17,1.82-17,1.82,8.1-12.49,19.62-4.66,19.62-4.66-2.2-3.66-6.04-6.17-6.04-6.17,12.69,3.73,9.1,16.73,17.77,16.73,4.04,0,2.84-5.46,1.51-7.92,3.22,2.42,3.35,4.99,3.35,4.99,1.33-4.3-3.31-9.76-3.31-9.76,7.48,5.02,6.7,10.94,6.7,10.94,1.33.13,1.97.93,1.97.93,4.48-9.23-10.3-19.13-11.98-19.88,2.09,2.04,2.77,4.95,2.77,4.95-5.48-4.22-17.6-9.25-28.94-5.55,4.04.47,6.26,1.91,6.26,1.91-13.85-.09-20.37,8.74-20.37,8.74,4.17-1.29,7.46-.67,7.46-.67-1.71,1.18-19.95,14.65-10.94,36.26.42-6.75,4.64-10.25,4.64-10.25,0,0-5.17,15.13,6.75,23.12-1.15-7.3,2.37-13.07,2.37-13.07,0,0-1.04,16.86,15.58,18.71-1.8-1.18-5.39-6.95-3.4-12.25,6.81,13.56,18.24,9.08,18.24,9.08,0,0-9.92-2.57-8.9-10.01Z" fill="#fff"/></svg>