<svg width="100" height="100" viewBox="0 0 100 100" fill="none" xmlns="http://www.w3.org/2000/svg">
<path d="M32.3 38.2533C16.4534 25.34 28.94 15.7266 34.6867 12.32C22.6667 17 18.2067 22.7 15.36 15.46C16.0267 19.5 19.78 33.3066 32.3 38.2533ZM30.42 48.2866C30.6067 46.9866 30.94 45.6 31.5734 44.1933C21.7934 43.2533 5.80671 41.1466 3.33337 39.6C9.10671 43.5866 12.3734 41.58 11.3667 48.8466C10.48 55.2666 11.5534 57.4733 11.5534 57.4733C15.4067 48.4333 23.4867 46.56 30.4134 48.2866H30.42ZM34.2667 40.2266C18.4467 35.88 14.86 19.18 14.86 19.18C16.6134 34.2466 11.8734 38.2466 5.66004 38.8266C5.66004 38.8266 18.7934 41.8 32.1 43.1533C32.6467 42.1733 33.3467 41.1933 34.2667 40.2266ZM21.3134 57.1333C20.5534 57.0266 19.8734 56.92 19.2934 56.68C18.58 57.5066 18.7 58.42 18.7 58.42C18.7 58.42 17.36 59.6133 18.5067 61.0466C18.5067 61.0466 18.4934 59.5 19.6667 59.16C20.4267 59.7333 21.2 57.6733 23.0734 58.58C21.2867 59.18 19.6534 60.5133 19.98 61.54C19.98 61.54 19.0867 62.9733 21.3134 63.8933C21.3134 63.8933 20.6734 62.68 21.2467 62.2866C21.82 61.8933 22.8934 62.12 23.5934 60.2666C24.1067 58.9066 26.0867 59.2333 27.3534 59.9266C25.3134 57.7066 23.12 57.3866 21.3067 57.1266L21.3134 57.1333ZM30.9934 61.4866C30.9934 61.4866 31.26 62.9 30.3534 63.5733C31.86 63.46 32.5 61.5466 32.1134 60.6333C32.52 59.6733 32.3667 58.9133 30.7067 58.64C29.0467 58.3666 29.04 57.4066 30.1867 57.2333C30.3267 57.2133 30.5 57.1733 30.6934 57.1266L30.6 56.5733C30.3534 55.14 30.18 53.6866 30.1467 52.24C27.8267 54.64 27.8 55.82 25.7667 55.8333C23.54 55.8533 23.4334 52.58 21.4334 52.6C19.4334 52.62 18.6067 54.3733 18.6067 54.3733C15.9 54.8533 16.0267 56.56 16.98 57.28C16.7534 55.9333 19.0667 55.5466 19.0667 55.5466C20.4934 56.96 25.32 55.2133 29.04 60.6666C29.8467 61.74 30.5734 61.6 31 61.4733L30.9934 61.4866ZM73.0334 72.7133C73.0334 72.7133 72.32 70.12 71.5534 68.5266C67.2334 68.6466 69.3267 65.9866 61.3667 67.5533C63.4934 65.8066 64.9734 66.4066 66.2134 65.9133C66.2134 65.9133 65.9067 61.46 61.3467 60.46C61.3467 60.46 57.4867 63.2 56.5067 67.1133C56.1 68.8466 56.7134 68.6466 56.9067 69.8333C57.1 71.0133 57.6334 70.96 59.4867 70.6666C63.22 70.0133 63.6067 70.74 64.6267 71.0266C66.72 71.6133 68.0934 70.84 69.1067 70.66C68.4267 72.9666 65.68 72.46 63.56 74.1C61.8267 75.4666 60.7534 74.4333 58.84 75.4933C56.9267 76.5533 55.48 74.8866 53.76 74.8666C52.9334 74.86 52.2067 75.1 51.8 75.4866C48.5867 75.5266 47.68 77.7133 47.74 78.5866C47.74 78.5866 48.4467 77.24 51.96 77.14C53.1467 78.3333 54.36 78.24 56.4134 77.8666C58.48 77.4866 58.1267 75.98 63.8467 75.8066C61.9067 77.0333 61.0734 76.48 58.3867 78.36C56.4667 79.6066 54.24 78.7133 54.22 81.2733C54.22 81.2733 52.04 83.3933 53.1667 85.4666C53.1667 85.4666 54.0267 83.3933 55.6734 82.3C55.6734 82.3 56.1667 83.2066 57.58 82.6933C57.5934 80.6466 58.9734 81.2066 59.9867 79.6133C61.24 77.5333 61.54 78.7 63.8134 77.44C66.0934 76.1866 66.0467 75.3466 67.8734 75.68C65.4334 76.68 66.2534 77.2666 62.8134 79.0666C59.38 80.8666 58.0667 82.3066 59.1 84.3C59.1 84.3 57.4467 87.0266 60.24 88.2066C60.24 88.2066 58.8134 86.24 60.72 84.9066C62.5 84.94 61.2734 82.0266 65.04 79.7066C68.8 77.3866 69.16 76.1333 72.8067 75.5333C76.4534 74.9333 77.9267 71.9533 76.2467 67.72C76.2467 67.72 74.2467 69.8133 73.0267 72.7066L73.0334 72.7133ZM94.1867 50.4866C82.9667 39.4733 92.8734 31.3266 96.6667 30.2066C96.6667 30.2066 77.7934 31.7933 56.7134 43.1266C55.54 43.7533 57.62 46.6133 57.62 46.6133C53.4467 49.96 51.16 46.88 43.1 52.54C43.7734 49.12 51.7067 47.28 51.7067 47.28C54.6267 39.8333 60.92 37.7333 61.8334 30.9733C62.9267 22.8266 54.6334 20.6333 54.6334 20.6333C54.4334 20.6666 51.9734 21.18 49.1534 21.7733C55.2534 16.0333 57.1134 19.0666 62.8534 13.7533C56.1667 16.44 55.0334 14.6266 47.0134 18.6533C47.0134 18.6533 48.96 16.7266 51.64 15.1333C51.64 15.1333 52.2134 13.48 53.5134 11.78C47.6934 14.8266 47.8334 18.4866 42.2534 20C42.2534 20 44.3934 18.1533 44.7934 17.6266C44.7934 17.6266 44.8734 16.84 45.3067 16.0266C42.4134 16.6466 42.2 19.4266 38.5267 20.78C34.8467 22.1266 37.9467 24.2866 33.8667 23.9266C29.2467 23.5133 25.6067 23.6733 30.9467 30.04C30.9467 30.04 30.5334 28.5333 30.7467 27.6933C30.7467 27.6933 32.2867 29.9933 34.0934 30.9066C32.9667 26.3333 40.88 26.14 46.4 29.4133C46.4 29.4133 44.1534 28.8333 42.5667 28.9333C37.8867 30.0466 38.54 34.54 33.7867 33.0733C33.7867 33.0733 35.58 37.32 40.5667 34.8866C38.56 33.6133 40.9067 28.98 50 31.5C50 31.5 52.7734 28.8 47.5667 25.3933C47.5667 25.3933 49.86 23.52 54.7867 24.3933C54.7867 24.3933 52.1067 24.8866 50.5267 26.12C57.1734 28.9066 51.2467 33.7066 48.7734 34.58C45.24 35.8466 40.9534 37.0733 38.5734 39.96C39.9467 39.5733 42.8534 40.26 43.2867 41.0066C43.2867 41.0066 37.3667 39.6333 34.8134 44.04C34.8134 44.04 37.2934 42.7266 39.0134 44.8C33.7334 43.9066 32.5934 47.7 32.28 51.4866C32.28 51.4866 34.9867 49.3933 37.6 51.6666C35.4534 51.2866 32.6867 52.32 32.3934 54.0933C32.1 55.86 34.4734 60.72 34.4734 60.72C34.4734 60.72 35.32 56.4333 38.32 52.2C37.3067 41.9266 44.8267 43.2933 53.62 35.36C49.8734 42.4 40.5134 41.5533 40.1667 50.3133C40.1667 50.3133 41.0267 49.5 42.72 49.1866C42.72 49.1866 35.4667 55.52 35.62 67.6533C35.6467 70.3466 34.74 70.1333 33.6267 69.44C32.5134 68.7466 29.58 70.1133 30.3467 73.86C30.3467 73.86 31.2334 70.8066 32.0934 71.5266C32.9534 72.24 34.88 72.08 33.9467 72.8133C33.0134 73.5466 29.8934 75.8533 31.96 78.28C31.96 78.28 32.3 80.2733 34.4667 80.8733C34.4667 80.8733 33.1067 79.36 33.3934 78.58C33.6734 77.8 34.5734 78.2666 34.68 75.7133C34.7867 73.7866 37.0867 72.3666 37.1467 73.38C37.2067 74.3933 35.5067 74.8933 36.0067 76.9266C36.1667 77.5733 36.5334 77.9066 36.9667 78.0133C38.8 80 41.2467 79.4466 41.2467 79.4466C41.2467 79.4466 39.36 78.7866 38.6734 77.2933C38.8867 77 39.02 76.6333 39 76.2333C38.9134 74.5333 41.1934 75.3866 40.8867 72.8733C40.58 70.36 39.3867 70.12 40.8067 69.2666C42.14 68.4733 42.06 70.5533 43.7134 69.78C44.48 70.9533 44.2534 72.18 44.2534 72.18C44.2534 72.18 46.12 70.7933 44.9334 68.6133C45.52 67.2333 44.0467 65.62 39.16 67.6133C39.16 67.6133 39.6134 66.34 41.34 65.2466C41.34 65.2466 41.7667 62.2733 44.3867 59.5466C44.78 60.34 44.3334 60.64 43.58 63.4666C47.26 66.04 51.2734 63.14 57.1534 62.74C57.1534 62.74 59.3467 59.7933 60.7267 59.0333C50.8534 55.4866 48.1667 59.2266 46.0334 58.04C52.7267 53.7333 68.3667 53.6266 73.1467 68.5866C76.9134 63.4733 80.1467 63.0933 84.56 65.0266C77.8067 56.8733 70.3867 52.16 62.7 49.2733C72.4467 50.2533 80.66 57.2533 83.3334 60.6C80.74 54.0666 86.9067 51.86 90.5934 51.9533C81.6467 47.28 71.2067 44.6333 62.5334 43.2133C67.2 41.5266 89.08 47.8733 94.2134 50.5133L94.1867 50.4866ZM31.7267 26.48C31.3067 25.8266 31.2867 24.9066 33.6734 25.54C32.1867 26.3466 32.3 27.3733 31.7267 26.48ZM43.2 23.0866C42.4067 23.7133 42.2667 24.96 40.0934 24.9866C37.4867 25.02 38.1867 22.8933 38.2334 22.68C38.7934 25.38 43.1 20.2733 45.4934 23.1666C45.4934 23.1666 43.6134 22.7666 43.2067 23.0866H43.2ZM73.0334 26.4866C66.32 25.6933 64.9267 23.0533 68.3267 21.4866C71.7267 19.92 77.4267 22.1266 73.0867 24.94C73.0867 24.94 83.5134 22.98 85.6334 14.3666C83.5067 16.28 79.7667 18.0733 73.8467 16.56C75.12 17.4333 75.94 19.3733 74.2067 18.9733C70.0867 17.8133 61.7334 20.1533 63.82 25.6066C65.12 29 74.7534 29.46 75.48 33.0866C78.2134 32.1933 80.7667 31.46 83.0934 30.8666C80.1467 28.0666 75.6134 26.7933 73.0334 26.4866Z" fill="white"/>
</svg>
